<?xml version="1.0" encoding="UTF-8" standalone="no"?><!DOCTYPE svg PUBLIC "-//W3C//DTD SVG 1.1//EN" "http://www.w3.org/Graphics/SVG/1.1/DTD/svg11.dtd"><!-- Generated by graphviz version 2.40.1 (20161225.0304)
 --><!-- Title: Couriers Pages: 1 --><svg xmlns="http://www.w3.org/2000/svg" xmlns:xlink="http://www.w3.org/1999/xlink" width="406pt" height="297pt" viewBox="0.00 0.00 406.25 296.80">
<g id="graph0" class="graph" transform="scale(1 1) rotate(0) translate(4 292.8)">
<title>Couriers</title>
<polygon fill="#ffffff" stroke="transparent" points="-4,4 -4,-292.8 402.2484,-292.8 402.2484,4 -4,4"/>
<text text-anchor="middle" x="199.1242" y="-274" font-family="Arial" font-size="12.00" fill="#000000">SENTIMENT ANALYSIS ON COVID-19 VACCINES - TWEETS</text>
<!-- TWEET -->
<g id="node1" class="node">
<title>TWEET</title>
<polygon fill="#f2f2f2" stroke="#000000" points="155.8916,-111.1 155.8916,-251.9 247.4692,-251.9 247.4692,-111.1 155.8916,-111.1"/>
<text text-anchor="middle" x="201.6804" y="-240.7" font-family="Arial" font-size="8.00" fill="#000000">tweet</text>
<polyline fill="none" stroke="#000000" points="155.8916,-234.3 247.4692,-234.3 "/>
<text text-anchor="start" x="163.8916" y="-223.1" font-family="Arial" font-size="8.00" fill="#000000">id: int [fk]</text>
<text text-anchor="start" x="163.8916" y="-213.5" font-family="Arial" font-size="8.00" fill="#000000"> tweet_id: text [uq]</text>
<text text-anchor="start" x="163.8916" y="-203.9" font-family="Arial" font-size="8.00" fill="#000000"> original_text: text</text>
<text text-anchor="start" x="163.8916" y="-194.3" font-family="Arial" font-size="8.00" fill="#000000"> cleaned_text: text</text>
<text text-anchor="start" x="163.8916" y="-184.7" font-family="Arial" font-size="8.00" fill="#000000"> token_text: text</text>
<text text-anchor="start" x="163.8916" y="-175.1" font-family="Arial" font-size="8.00" fill="#000000"> author_id: text [fk]</text>
<text text-anchor="start" x="163.8916" y="-165.5" font-family="Arial" font-size="8.00" fill="#000000"> conversation_id: text</text>
<text text-anchor="start" x="163.8916" y="-155.9" font-family="Arial" font-size="8.00" fill="#000000"> lang: text</text>
<text text-anchor="start" x="163.8916" y="-146.3" font-family="Arial" font-size="8.00" fill="#000000"> created_at: datetime</text>
<text text-anchor="start" x="163.8916" y="-136.7" font-family="Arial" font-size="8.00" fill="#000000"> place_id: text [fk]</text>
<text text-anchor="start" x="163.8916" y="-127.1" font-family="Arial" font-size="8.00" fill="#000000"> original_folder: text</text>
<text text-anchor="start" x="163.8916" y="-117.5" font-family="Arial" font-size="8.00" fill="#000000"> key_name: text</text>
</g>
<!-- TWEET_HASHTAG -->
<g id="node2" class="node">
<title>TWEET_HASHTAG</title>
<polygon fill="none" stroke="#000000" points="0,-14.9 0,-59.7 85.3608,-59.7 85.3608,-14.9 0,-14.9"/>
<text text-anchor="middle" x="42.6804" y="-48.5" font-family="Arial" font-size="8.00" fill="#000000">tweet_hashtag</text>
<polyline fill="none" stroke="#000000" points="0,-42.1 85.3608,-42.1 "/>
<text text-anchor="start" x="8" y="-30.9" font-family="Arial" font-size="8.00" fill="#000000">tweet_id: int [pk]</text>
<text text-anchor="start" x="8" y="-21.3" font-family="Arial" font-size="8.00" fill="#000000"> hashtag_id: int [pk]</text>
</g>
<!-- TWEET&#45;&gt;TWEET_HASHTAG -->
<g id="edge1" class="edge">
<title>TWEET-&gt;TWEET_HASHTAG</title>
<path fill="none" stroke="#000000" d="M155.691,-139.7914C126.8921,-113.6731 90.912,-81.0421 67.3905,-59.7101"/>
<text text-anchor="middle" x="62.1384" y="-61.8101" font-family="Arial" font-size="7.00" fill="#000000">0..*</text>
<text text-anchor="middle" x="150.4389" y="-141.8914" font-family="Arial" font-size="7.00" fill="#000000">0..*</text>
</g>
<!-- REFERENCED_TWEET -->
<g id="node4" class="node">
<title>REFERENCED_TWEET</title>
<polygon fill="none" stroke="#000000" points="103.1132,-10.1 103.1132,-64.5 198.2476,-64.5 198.2476,-10.1 103.1132,-10.1"/>
<text text-anchor="middle" x="150.6804" y="-53.3" font-family="Arial" font-size="8.00" fill="#000000">referenced_tweet</text>
<polyline fill="none" stroke="#000000" points="103.1132,-46.9 198.2476,-46.9 "/>
<text text-anchor="start" x="111.1132" y="-35.7" font-family="Arial" font-size="8.00" fill="#000000">tweet_id: int [pk]</text>
<text text-anchor="start" x="111.1132" y="-26.1" font-family="Arial" font-size="8.00" fill="#000000"> referenced_id: int [pk]</text>
<text text-anchor="start" x="111.1132" y="-16.5" font-family="Arial" font-size="8.00" fill="#000000"> type: text</text>
</g>
<!-- TWEET&#45;&gt;REFERENCED_TWEET -->
<g id="edge5" class="edge">
<title>TWEET-&gt;REFERENCED_TWEET</title>
<path fill="none" stroke="#000000" d="M176.778,-111.0897C170.9624,-94.6463 165.1053,-78.0857 160.4176,-64.8315"/>
<text text-anchor="middle" x="154.581" y="-66.9315" font-family="Arial" font-size="7.00" fill="#000000">1..1</text>
<text text-anchor="middle" x="182.6146" y="-104.7897" font-family="Arial" font-size="7.00" fill="#000000">1..1</text>
</g>
<!-- PLACE -->
<g id="node5" class="node">
<title>PLACE</title>
<polygon fill="none" stroke="#000000" points="215.7828,-10.1 215.7828,-64.5 289.578,-64.5 289.578,-10.1 215.7828,-10.1"/>
<text text-anchor="middle" x="252.6804" y="-53.3" font-family="Arial" font-size="8.00" fill="#000000">place</text>
<polyline fill="none" stroke="#000000" points="215.7828,-46.9 289.578,-46.9 "/>
<text text-anchor="start" x="223.7828" y="-35.7" font-family="Arial" font-size="8.00" fill="#000000">place_id: int [pk]</text>
<text text-anchor="start" x="223.7828" y="-26.1" font-family="Arial" font-size="8.00" fill="#000000"> name: text</text>
<text text-anchor="start" x="223.7828" y="-16.5" font-family="Arial" font-size="8.00" fill="#000000"> country: text </text>
</g>
<!-- TWEET&#45;&gt;PLACE -->
<g id="edge3" class="edge">
<title>TWEET-&gt;PLACE</title>
<path fill="none" stroke="#000000" d="M226.5828,-111.0897C232.3984,-94.6463 238.2555,-78.0857 242.9432,-64.8315"/>
<text text-anchor="middle" x="248.7798" y="-66.9315" font-family="Arial" font-size="7.00" fill="#000000">1..1</text>
<text text-anchor="middle" x="220.7462" y="-104.7897" font-family="Arial" font-size="7.00" fill="#000000">1..1</text>
</g>
<!-- USER -->
<g id="node6" class="node">
<title>USER</title>
<polygon fill="none" stroke="#000000" points="307.1124,-.5 307.1124,-74.1 398.2484,-74.1 398.2484,-.5 307.1124,-.5"/>
<text text-anchor="middle" x="352.6804" y="-62.9" font-family="Arial" font-size="8.00" fill="#000000">user</text>
<polyline fill="none" stroke="#000000" points="307.1124,-56.5 398.2484,-56.5 "/>
<text text-anchor="start" x="315.1124" y="-45.3" font-family="Arial" font-size="8.00" fill="#000000">author_id: int [pk]</text>
<text text-anchor="start" x="315.1124" y="-35.7" font-family="Arial" font-size="8.00" fill="#000000"> username: text </text>
<text text-anchor="start" x="315.1124" y="-26.1" font-family="Arial" font-size="8.00" fill="#000000"> name: text</text>
<text text-anchor="start" x="315.1124" y="-16.5" font-family="Arial" font-size="8.00" fill="#000000"> verified: bool</text>
<text text-anchor="start" x="315.1124" y="-6.9" font-family="Arial" font-size="8.00" fill="#000000"> created_at: datetime</text>
</g>
<!-- TWEET&#45;&gt;USER -->
<g id="edge4" class="edge">
<title>TWEET-&gt;USER</title>
<path fill="none" stroke="#000000" d="M247.8059,-137.4517C268.9683,-117.2423 293.7785,-93.5494 313.9535,-74.2829"/>
<text text-anchor="middle" x="308.1169" y="-76.3829" font-family="Arial" font-size="7.00" fill="#000000">1..1</text>
<text text-anchor="middle" x="253.6425" y="-139.5517" font-family="Arial" font-size="7.00" fill="#000000">1..1</text>
</g>
<!-- HASHTAG -->
<g id="node3" class="node">
<title>HASHTAG</title>
<polygon fill="none" stroke="#000000" points="14.8964,-159.1 14.8964,-203.9 70.4644,-203.9 70.4644,-159.1 14.8964,-159.1"/>
<text text-anchor="middle" x="42.6804" y="-192.7" font-family="Arial" font-size="8.00" fill="#000000">hashtag</text>
<polyline fill="none" stroke="#000000" points="14.8964,-186.3 70.4644,-186.3 "/>
<text text-anchor="start" x="22.8964" y="-175.1" font-family="Arial" font-size="8.00" fill="#000000">id: int [pk]</text>
<text text-anchor="start" x="22.8964" y="-165.5" font-family="Arial" font-size="8.00" fill="#000000"> name: text</text>
</g>
<!-- HASHTAG&#45;&gt;TWEET_HASHTAG -->
<g id="edge2" class="edge">
<title>HASHTAG-&gt;TWEET_HASHTAG</title>
<path fill="none" stroke="#000000" d="M42.6804,-158.9688C42.6804,-132.0369 42.6804,-87.2205 42.6804,-60.1489"/>
<text text-anchor="middle" x="37.4283" y="-62.2489" font-family="Arial" font-size="7.00" fill="#000000">0..*</text>
<text text-anchor="middle" x="37.4283" y="-152.6687" font-family="Arial" font-size="7.00" fill="#000000">0..*</text>
</g>
</g>
</svg>